Simulation
nRows=39
nColumns=15
endheader
time  TH_x TH_y TH_z SC_y  SC_z  SC_x  AC_y  AC_z  AC_x  GH_y  GH_z  GH_yy  EL_x  PS_y
2.0666666666666664  0.000000  0.000000  0.000000  -28.43853197596336  13.901811092765865  27.32370666660822  65.29147581836297  9.815720458181032  18.145876766586298  44.764131744016225  70.72930092090596  -19.923249291224668  16.224759007150233  120.000000
2.1071895424836597  0.000000  0.000000  0.000000  -28.4668087278909  13.905523385193803  27.37581819214506  65.23695745950664  9.828982600095461  18.152436644116413  44.81014687627303  70.70739683697614  -19.94654609984934  16.262203748973477  120.000000
2.1477124183006535  0.000000  0.000000  0.000000  -28.4894811864004  13.897831729367033  27.41589443276191  65.15174784054595  9.857500968411305  18.141365838296235  44.85277170369009  70.66562847876243  -20.037287948267807  16.303035497819334  120.000000
2.188235294117647  0.000000  0.000000  0.000000  -28.496599538742245  13.873316560675967  27.433036919984172  65.04208112044523  9.893064612146457  18.097665702644402  44.882672804890255  70.60503331439445  -20.217603994489764  16.32943792353497  120.000000
2.22875816993464  0.000000  0.000000  0.000000  -28.478570297786742  13.827079375556147  27.41767987738681  64.91389990719345  9.92717865625322  18.006539489156616  44.89105494233888  70.52642185659985  -20.508142243012472  16.324597001669297  120.000000
2.269281045751634  0.000000  0.000000  0.000000  -28.427246079837275  13.755045192461235  27.362705557530635  64.77201200603902  9.9520743954188  17.854899996064376  44.871141530523765  70.42975944346693  -20.926311743067988  16.274708605767504  120.000000
2.3098039215686272  0.000000  0.000000  0.000000  -28.33710437832676  13.65411366533357  27.26435230535849  64.6190672541185  9.961764964228538  17.63256834712265  44.81931950883139  70.31322087994121  -21.484508211572273  16.17139079451829  120.000000
2.3503267973856206  0.000000  0.000000  0.000000  -28.205924545438513  13.522229804078442  27.12248160491513  64.45473613744917  9.952750902573136  17.332984275007597  44.73579366379516  70.17252590844583  -22.18885886405918  16.01333070797751  120.000000
2.390849673202614  0.000000  0.000000  0.000000  -28.03448682185758  13.358358258976445  26.94007415918991  64.27580348942828  9.924243739102925  16.953381984959734  44.624525074015544  70.00084507711536  -23.039616092379767  15.805883063178594  120.000000
2.4313725490196076  0.000000  0.000000  0.000000  -27.825509194638983  13.162444356579305  26.722061174623125  64.07698097357718  9.877792526500228  16.494416874032254  44.49256285973439  69.78958321117403  -24.032362377269447  15.558961774940219  120.000000
2.471895424836601  0.000000  0.000000  0.000000  -27.582618915569398  12.935411764768086  26.474137965129835  63.85202492236132  9.816735374587154  15.95950830084117  44.34904980064684  69.52942040369518  -25.15941124272626  15.284752100347394  120.000000
2.5124183006535943  0.000000  0.000000  0.000000  -27.309770934905327  12.679019953854477  26.201820330169205  63.59500787874838  9.745609560096804  15.354117799986868  44.204080973815984  69.21153505905347  -26.41075759129095  14.99605554318081  120.000000
2.552941176470588  0.000000  0.000000  0.000000  -27.011198562649785  12.395762012322567  25.90991563130648  63.301444910178795  9.669689075482081  14.68523986369146  44.06773724638593  68.82880406019392  -27.773780083455673  14.705311601202206  120.000000
2.5934640522875814  0.000000  0.000000  0.000000  -26.69164264670325  12.088838577423816  25.602281020812324  62.96953341597504  9.594428239314727  13.961325158289027  43.94926570150935  68.37714269932096  -29.23238308628223  14.423734002533912  120.000000
2.6339869281045747  0.000000  0.000000  0.000000  -26.356563788212945  11.762040465566145  25.2818508195705  62.60143699540152  9.524925442027264  13.192500686052107  43.85661836357585  67.85677493832252  -30.76593853938017  14.16008436176107  120.000000
2.6745098039215685  0.000000  0.000000  0.000000  -26.012163655443878  11.419851978609916  24.95080696056683  62.20396053806836  9.465360604746195  12.390939290385502  43.79605451365652  67.27304602893624  -32.34803575962683  13.919799130915733  120.000000
2.7150326797385618  0.000000  0.000000  0.000000  -25.66546117685559  11.067361703817603  24.610889185110672  61.78843808135612  9.418660091705776  11.570928351873789  43.77192509240807  66.63646557823056  -33.94631954781421  13.705124604632712  120.000000
2.755555555555555  0.000000  0.000000  0.000000  -25.32435361822977  10.7100690559565  24.26374517982655  61.369681010479816  9.386350425175484  10.748549389852544  43.78652529551376  65.96204083056192  -35.52340689132611  13.516199738018017  120.000000
2.796078431372549  0.000000  0.000000  0.000000  -24.99737443432497  10.353858332905057  23.911255894910568  60.96420028271265  9.368550163288196  9.94110737846423  43.84016308974051  65.26799609900615  -37.0386528270606  13.352258555462106  120.000000
2.836601307189542  0.000000  0.000000  0.000000  -24.6930302323617  10.00491605884377  23.555698831031435  60.588355367696636  9.364106057014778  9.166326777868361  43.931364094105966  64.57409894647608  -38.450718145906656  13.212468515938088  120.000000
2.8771241830065355  0.000000  0.000000  0.000000  -24.418761679416495  9.669496931822142  23.19990802238232  60.256766562244096  9.37072951024002  8.441307123148011  44.05739255708931  63.899787243354055  -39.72108779950637  13.096017496159384  120.000000
2.917647058823529  0.000000  0.000000  0.000000  -24.17992365758406  9.353500279411875  22.84741817702896  59.98097561643048  9.385371737629686  7.781007559246081  44.21452836844127  63.26218742594752  -40.81818620309534  13.002495545539972  120.000000
2.9581699346405226  0.000000  0.000000  0.000000  -23.97945239373326  9.062023816905192  22.502150514256975  59.767728286102184  9.40524180018478  7.196936432280131  44.39773085021321  62.67437966269449  -41.72156977023468  12.931647152125281  120.000000
2.998692810457516  0.000000  0.000000  0.000000  -23.818345076506823  8.799210554428015  22.168341350800183  59.61754005685578  9.42861327159891  6.696530977716708  44.59999978581005  62.14466524907932  -42.425325078678696  12.88131238914866  120.000000
3.039215686274509  0.000000  0.000000  0.000000  -23.695978307674142  8.568635929311615  21.850799340726542  59.52477293055434  9.454716120058109  6.28289174812444  44.81226778210944  61.67677886050824  -42.93767799753797  12.84884898492313  120.000000
3.079738562091503  0.000000  0.000000  0.000000  -23.6097957412229  8.373384138342354  21.554699515082905  59.47918940406726  9.483767278876162  5.955290327572968  45.025173471742065  61.2708389526698  -43.27787533659139  12.833382395976203  120.000000
3.1202614379084963  0.000000  0.000000  0.000000  -23.555067021089183  8.215820304977628  21.285364983663055  59.468157676157674  9.516761231957048  5.710633598931678  45.2309073438746  60.9245492844869  -43.47331073892485  12.834203259687653  120.000000
3.1607843137254896  0.000000  0.000000  0.000000  -23.525594245807447  8.097418004669432  21.04830330962956  59.47844905830135  9.554886815560636  5.544029701820025  45.42375444537098  60.63401790899659  -43.55591608212853  12.850490850052761  120.000000
3.2013071895424834  0.000000  0.000000  0.000000  -23.515006050823885  8.018211597553837  20.848871561933713  59.49769663106604  9.59930103010591  5.448601895016602  45.599921513933026  60.394318750864876  -43.558367353071816  12.882002693777043  120.000000
3.2418300653594767  0.000000  0.000000  0.000000  -23.517444596415814  7.97647656449333  20.69158308883281  59.51534596286081  9.650735158313507  5.415731416698008  45.75672303160768  60.199960894895575  -43.51140205531543  12.92731155713182  120.000000
3.28235294117647  0.000000  0.000000  0.000000  -23.52807643278851  7.9686132713040045  20.579470536621148  59.52338520151746  9.708855368933177  5.4352030574918215  45.891776030724515  60.045189402418565  -43.441365415495255  12.983502054521228  120.000000
3.322875816993464  0.000000  0.000000  0.000000  -23.543560810025728  7.9889019855741745  20.51343063143869  59.51726044338528  9.772168561252242  5.4951870006542425  46.003018597268266  59.92454075671139  -43.368411128775854  13.04761770698663  120.000000
3.363398692810457  0.000000  0.000000  0.000000  -23.561813392939627  8.029612668812655  20.49177151158589  59.49610806861036  9.838381726673596  5.582855177513885  46.08917937332136  59.83328620863876  -43.30652713126255  13.116667466250965  120.000000
3.4039215686274504  0.000000  0.000000  0.000000  -23.58166755901811  8.081482120467259  20.510288160268356  59.46218979518184  9.90488304759321  5.684957497804908  46.15002614563287  59.76738432426023  -43.264895920871666  13.187485554327992  120.000000
3.444444444444444  0.000000  0.000000  0.000000  -23.602879592143367  8.134296756934518  20.562796469497897  59.4199998387643  9.969251777163445  5.788107245833037  46.18657015705648  59.723211290154275  -43.24953967604551  13.256916209083979  120.000000
3.4849673202614375  0.000000  0.000000  0.000000  -23.62602385448019  8.177735038426382  20.64185418243102  59.375255158012436  10.029462738249714  5.879210164255765  46.20119339337978  59.697297433431046  -43.26496319169599  13.321832786402085  120.000000
3.525490196078431  0.000000  0.000000  0.000000  -23.65218253252918  8.202168847438907  20.73962524055415  59.33401587411268  10.083795388982015  5.945868050070316  46.19788610963862  59.686072727600866  -43.315404920818885  13.37920878130107  120.000000
3.5660130718954246  0.000000  0.000000  0.000000  -23.682387030811444  8.199448180507158  20.848356170867426  59.302041938907166  10.130735611637787  5.977098326621911  46.18250886498609  59.68565467895763  -43.405762862552244  13.426010471926057  120.000000
3.606535947712418  0.000000  0.000000  0.000000  -23.71682616274748  8.163672611881998  20.96191103301587  59.284297118579936  10.167650491316993  5.963478952889797  46.162961019679706  59.69149225494529  -43.54208885134776  13.458864674348925  120.000000
